<mxfile host="app.diagrams.net" modified="2023-08-17T15:02:18.503Z" agent="Mozilla/5.0 (Windows NT 10.0; Win64; x64) AppleWebKit/537.36 (KHTML, like Gecko) Chrome/116.0.0.0 Safari/537.36" version="21.6.8" etag="VF7orblZV0CG5W4-xAef" type="github">
  <diagram name="Page-1" id="kL6LJQEnwtDMVGzqzZTi">
    <mxGraphModel>
      <root>
        <mxCell id="0" />
        <mxCell id="1" parent="0" />
      </root>
    </mxGraphModel>
  </diagram>
</mxfile>
